<svg width='200' height='200' fill="#70C041" xmlns:dc="http://purl.org/dc/elements/1.1/" xmlns:cc="http://creativecommons.org/ns#" xmlns:rdf="http://www.w3.org/1999/02/22-rdf-syntax-ns#" xmlns:svg="http://www.w3.org/2000/svg" xmlns="http://www.w3.org/2000/svg" xmlns:sodipodi="http://sodipodi.sourceforge.net/DTD/sodipodi-0.dtd" xmlns:inkscape="http://www.inkscape.org/namespaces/inkscape" version="1.1" x="0px" y="0px" viewBox="0 0 100 100"><g transform="translate(0,-952.36218)"><path style="text-indent:0;text-transform:none;direction:ltr;block-progression:tb;baseline-shift:baseline;color:#000000;enable-background:accumulate;" d="m 85.81858,967.33378 c -1.036,0.049 -2.0461,0.5194 -2.75,1.2813 -10.5314,11.0186 -27.3777,29.5567 -38.5625,41.37502 l -14.0937,-10.78132 c -1.6589,-1.2974 -4.3532,-0.9563 -5.6365,0.7135 -1.2832,1.66982 -0.9192,4.36122 0.7615,5.63022 l 17,13 c 1.5487,1.1972 3.9939,1.0114 5.3437,-0.4062 11.1986,-11.7164 29.9763,-32.46632 41,-44.00002 1.1313,-1.1396 1.4681,-2.994 0.8097,-4.4586 -0.6584,-1.4646 -2.2689,-2.4436 -3.8722,-2.3539 z m -75.8437001,10.0625 0,56.00002 c 2e-4,2.0943 1.9057001,3.9998 4.0000001,4 l 56,0 c 2.0943,-2e-4 3.9998,-1.9057 4,-4 l 0,-26 c 0.03,-2.1133 -1.8865,-4.057 -4,-4.057 -2.1135,0 -4.0299,1.9437 -4,4.057 l 0,22 -48,0 0,-48.00002 42,0 c 2.1132,0.03 4.057,-1.8865 4.057,-4 0,-2.1135 -1.9438,-4.0299 -4.057,-4 l -46,0 c -2.2044,0.035 -3.9556,2.3142 -4.0000001,4 z" fill="#70C041" fill-opacity="1" stroke="none" marker="none" visibility="visible" display="inline" overflow="visible"/></g></svg>